HIERARCHY
ROOT Hips
{
	OFFSET 0.000000 0.000000 0.000000
	CHANNELS 6 Xposition Yposition Zposition Zrotation Yrotation Xrotation 
	JOINT LHipJoint
	{
		OFFSET 0.000000 0.000000 0.000000
		CHANNELS 3 Zrotation Yrotation Xrotation
		JOINT LeftUpLeg
		{
			OFFSET 1.363060 -1.794630 0.839290
			CHANNELS 3 Zrotation Yrotation Xrotation
			JOINT LeftLeg
			{
				OFFSET 2.448110 -6.726130 0.000000
				CHANNELS 3 Zrotation Yrotation Xrotation
				JOINT LeftFoot
				{
					OFFSET 2.562200 -7.039590 0.000000
					CHANNELS 3 Zrotation Yrotation Xrotation
					JOINT LeftToeBase
					{
						OFFSET 0.157640 -0.433110 2.322550
						CHANNELS 3 Zrotation Yrotation Xrotation
						End Site
						{
							OFFSET 0.000000 0.000000 0.000000
						}
					}
				}
			}
		}
	}
	JOINT RHipJoint
	{
		OFFSET 0.000000 0.000000 0.000000
		CHANNELS 3 Zrotation Yrotation Xrotation
		JOINT RightUpLeg
		{
			OFFSET -1.305520 -1.794630 0.839290
			CHANNELS 3 Zrotation Yrotation Xrotation
			JOINT RightLeg
			{
				OFFSET -2.542530 -6.985550 0.000000
				CHANNELS 3 Zrotation Yrotation Xrotation
				JOINT RightFoot
				{
					OFFSET -2.568260 -7.056230 0.000000
					CHANNELS 3 Zrotation Yrotation Xrotation
					JOINT RightToeBase
					{
						OFFSET -0.164730 -0.452590 2.363150
						CHANNELS 3 Zrotation Yrotation Xrotation
						End Site
						{
							OFFSET 0.000000 0.000000 0.000000
						}
					}
				}
			}
		}
	}
	JOINT LowerBack
	{
		OFFSET 0.000000 0.000000 0.000000
		CHANNELS 3 Zrotation Yrotation Xrotation
		JOINT Spine
		{
			OFFSET 0.028270 2.035590 -0.193380
			CHANNELS 3 Zrotation Yrotation Xrotation
			JOINT Spine1
			{
				OFFSET 0.056720 2.048850 -0.042750
				CHANNELS 3 Zrotation Yrotation Xrotation
				JOINT Neck
				{
					OFFSET 0.000000 0.000000 0.000000
					CHANNELS 3 Zrotation Yrotation Xrotation
					JOINT Neck1
					{
						OFFSET -0.054170 1.746240 0.172020
						CHANNELS 3 Zrotation Yrotation Xrotation
						JOINT Head
						{
							OFFSET 0.104070 1.761360 -0.123970
							CHANNELS 3 Zrotation Yrotation Xrotation
							End Site
							{
								OFFSET 0.000000 0.000000 0.000000
							}
						}
					}
				}
				JOINT LeftShoulder
				{
					OFFSET 0.000000 0.000000 0.000000
					CHANNELS 3 Zrotation Yrotation Xrotation
					JOINT LeftArm
					{
						OFFSET 3.362410 1.200890 -0.311210
						CHANNELS 3 Zrotation Yrotation Xrotation
						JOINT LeftForeArm
						{
							OFFSET 4.983000 -0.000000 -0.000000
							CHANNELS 3 Zrotation Yrotation Xrotation
							JOINT LeftHand
							{
								OFFSET 3.483560 -0.000000 -0.000000
								CHANNELS 3 Zrotation Yrotation Xrotation
								JOINT LeftFingerBase
								{
									OFFSET 0.000000 0.000000 0.000000
									CHANNELS 3 Zrotation Yrotation Xrotation
									JOINT LeftHandIndex1
									{
										OFFSET 0.715260 -0.000000 -0.000000
										CHANNELS 3 Zrotation Yrotation Xrotation
										End Site
										{
											OFFSET 0.000000 0.000000 0.000000
										}
									}
								}
								JOINT LThumb
								{
									OFFSET 0.000000 0.000000 0.000000
									CHANNELS 3 Zrotation Yrotation Xrotation
									End Site
									{
										OFFSET 0.000000 0.000000 0.000000
									}
								}
							}
						}
					}
				}
				JOINT RightShoulder
				{
					OFFSET 0.000000 0.000000 0.000000
					CHANNELS 3 Zrotation Yrotation Xrotation
					JOINT RightArm
					{
						OFFSET -3.136600 1.374050 -0.404650
						CHANNELS 3 Zrotation Yrotation Xrotation
						JOINT RightForeArm
						{
							OFFSET -5.241900 -0.000000 -0.000000
							CHANNELS 3 Zrotation Yrotation Xrotation
							JOINT RightHand
							{
								OFFSET -3.444170 -0.000000 -0.000000
								CHANNELS 3 Zrotation Yrotation Xrotation
								JOINT RightFingerBase
								{
									OFFSET 0.000000 0.000000 0.000000
									CHANNELS 3 Zrotation Yrotation Xrotation
									JOINT RightHandIndex1
									{
										OFFSET -0.622530 -0.000000 -0.000000
										CHANNELS 3 Zrotation Yrotation Xrotation
										End Site
										{
											OFFSET 0.000000 0.000000 0.000000
										}
									}
								}
								JOINT RThumb
								{
									OFFSET 0.000000 0.000000 0.000000
									CHANNELS 3 Zrotation Yrotation Xrotation
									End Site
									{
										OFFSET 0.000000 0.000000 0.000000
									}
								}
							}
						}
					}
				}
			}
		}
	}
}
MOTION
Frames: 8
Frame Time: 0.008333
1.747503 16.892490 -1.335005 8.436037 -87.498170 -13.872928 -10.765541 3.115071 2.402336 -1.363627 2.054304 -18.019397 0.370877 2.577597 48.465874 3.002043 20.846763 1.223668 3.023000 -0.000000 -51.818500 10.123455 -1.749105 -2.379069 7.568935 -21.049733 -1.031355 1.290704 -0.775081 22.632040 -2.598659 -11.720803 -13.178131 0.955800 -0.000000 -62.059100 -3.391014 -3.392408 -2.151680 -0.936349 -3.220381 -2.587882 -4.323241 -3.252686 2.408373 11.265866 -26.910753 -10.196652 -1.070571 -0.046542 -0.607051 0.000000 0.000000 0.000000 5.826471 19.253112 -0.378473 -68.673536 24.696690 0.660386 -3.105369 -44.010907 0.002107 -2.615661 -0.171001 0.004586 -0.107768 0.009093 -0.000000 0.000000 0.000000 0.000000 0.000000 0.000000 0.000000 13.719895 -23.390976 -0.977011 58.727409 -9.081085 17.379034 2.162906 48.555968 0.010572 2.066217 4.996731 0.088877 0.075007 -0.074955 -0.000000 0.000000 0.000000 0.000000 0.000000 0.000000 0.000000 
1.772379 16.898295 -1.361489 8.893872 -87.606458 -14.318975 -10.789140 2.987428 2.400751 -1.439996 1.910516 -19.906191 0.528433 2.701009 51.165463 3.088572 21.399187 2.231903 3.454000 -0.000000 -48.903900 10.152123 -1.743238 -2.393751 7.579998 -21.304645 -1.136880 1.320337 -0.756501 22.498604 -2.516065 -11.317371 -13.063121 0.913300 0.000000 -62.174100 -3.310647 -3.322071 -2.144949 -0.932879 -3.155449 -2.574372 -4.370358 -3.186804 2.462211 11.532356 -26.994083 -10.291104 -1.100314 -0.047764 -0.632987 0.000000 0.000000 0.000000 6.103454 19.476859 -0.374105 -69.863146 25.198042 -0.354023 -3.151423 -43.516076 0.002427 -2.504956 -0.343460 0.008091 -0.110469 0.008827 -0.000000 0.000000 0.000000 0.000000 0.000000 0.000000 0.000000 14.176508 -23.446218 -0.978177 58.559312 -8.546879 16.986603 2.174724 48.469913 0.010684 1.857436 5.017026 0.079892 0.078033 -0.076867 -0.000000 0.000000 0.000000 0.000000 0.000000 0.000000 0.000000 
1.799459 16.903906 -1.387654 9.998927 -87.770087 -15.422652 -10.782328 2.851489 2.356709 -1.576462 1.957620 -21.843461 0.671341 2.820542 53.814196 3.170554 21.900550 2.977023 3.801300 -0.000001 -45.660100 10.213495 -1.728257 -2.395344 7.558320 -21.493055 -1.274119 1.341780 -0.742377 22.437581 -2.437539 -10.930389 -12.971407 0.877900 -0.000000 -62.288600 -3.224948 -3.238169 -2.114246 -0.931073 -3.076844 -2.557838 -4.423875 -3.106346 2.513846 11.796052 -27.042637 -10.383370 -1.129756 -0.048993 -0.658599 0.000000 0.000000 0.000000 6.343519 19.724852 -0.365638 -70.962967 25.684743 -1.192573 -3.197698 -43.031076 0.002710 -2.469381 -0.512965 0.011388 -0.112398 0.007616 -0.000000 0.000000 0.000000 0.000000 0.000000 0.000000 0.000000 14.619226 -23.459409 -0.978310 58.413957 -7.971830 16.598477 2.184170 48.382264 0.010770 1.595860 5.040124 0.068410 0.081564 -0.078981 -0.000000 0.000000 0.000000 0.000000 0.000000 0.000000 0.000000 
1.829159 16.909141 -1.413863 11.821296 -87.973814 -17.256826 -10.740833 2.706792 2.266562 -1.781705 2.189498 -23.830307 0.801980 2.937291 56.400727 3.246416 22.350221 3.441888 4.052600 0.000000 -42.385900 10.310399 -1.703941 -2.385179 7.509011 -21.604308 -1.437940 1.353839 -0.733763 22.449838 -2.368026 -10.584272 -12.910511 0.851400 0.000000 -62.371000 -3.138291 -3.146424 -2.052440 -0.931434 -2.989745 -2.537020 -4.482870 -3.016380 2.562000 12.052300 -27.051920 -10.470131 -1.158789 -0.050256 -0.683043 0.000000 0.000000 0.000000 6.542606 19.986361 -0.353228 -71.962082 26.152497 -1.847623 -3.244878 -42.548270 0.002940 -2.512205 -0.676113 0.014981 -0.113526 0.005460 -0.000000 0.000000 0.000000 0.000000 0.000000 0.000000 0.000000 15.039455 -23.429580 -0.978552 58.305882 -7.365225 16.219425 2.190706 48.293566 0.010824 1.281447 5.068135 0.054531 0.085557 -0.081287 -0.000000 0.000000 0.000000 0.000000 0.000000 0.000000 0.000000 
1.861624 16.913867 -1.440442 14.395477 -88.194980 -19.855750 -10.663451 2.550822 2.128612 -2.060524 2.591183 -25.868159 0.923653 3.051569 58.924088 3.313910 22.738092 3.618167 4.196700 -0.000000 -39.231800 10.442409 -1.672782 -2.365161 7.440504 -21.633282 -1.621135 1.356575 -0.731988 22.528904 -2.311816 -10.301900 -12.881942 0.834500 0.000000 -62.410500 -3.054126 -3.053485 -1.953417 -0.933967 -2.900327 -2.510787 -4.545651 -2.923057 2.605578 12.295038 -27.019611 -10.547640 -1.187142 -0.051572 -0.705337 0.000000 0.000000 0.000000 6.697848 20.246760 -0.337129 -72.854553 26.597647 -2.321696 -3.293345 -42.061175 0.003098 -2.629167 -0.830736 0.018969 -0.113895 0.002429 -0.000000 0.000000 0.000000 0.000000 0.000000 0.000000 0.000000 15.426547 -23.358871 -0.980073 58.247976 -6.737533 15.856217 2.193824 48.206149 0.010832 0.918310 5.101396 0.038253 0.089924 -0.083747 -0.000000 0.000000 0.000000 0.000000 0.000000 0.000000 0.000000 
1.896874 16.918044 -1.467484 17.716262 -88.410607 -23.207834 -10.552582 2.377860 1.946303 -2.416813 3.137570 -27.969365 1.040984 3.161501 61.384425 3.372813 23.062726 3.551685 4.244500 0.000000 -36.567499 10.604702 -1.639320 -2.333396 7.370089 -21.565788 -1.829327 1.350838 -0.738735 22.672890 -2.274581 -10.111693 -12.891488 0.828900 -0.000001 -62.381500 -2.976143 -2.965398 -1.821100 -0.938380 -2.814382 -2.479276 -4.609408 -2.832377 2.646147 12.518640 -26.951018 -10.613427 -1.213776 -0.052886 -0.724810 0.000000 0.000000 0.000000 6.814809 20.503522 -0.317864 -73.638182 27.002283 -2.609397 -3.343507 -41.548404 0.003180 -2.803136 -0.979174 0.023652 -0.113668 -0.001319 -0.000000 0.000000 0.000000 0.000000 0.000000 0.000000 0.000000 15.771179 -23.257483 -0.984976 58.247946 -6.092956 15.525884 2.192822 48.120389 0.010785 0.511835 5.140657 0.019876 0.094553 -0.086312 -0.000000 0.000000 0.000000 0.000000 0.000000 0.000000 0.000000 
1.935275 16.921403 -1.495061 21.636039 -88.589774 -27.174632 -10.417083 2.182688 1.719496 -2.850487 3.800790 -30.126114 1.156792 3.268444 63.792971 3.419849 23.300119 3.257538 4.191400 -0.000000 -34.363000 10.786960 -1.607525 -2.300005 7.296923 -21.425386 -2.038233 1.338724 -0.755769 22.865393 -2.256591 -10.017852 -12.932410 0.833100 -0.000000 -62.285500 -2.913263 -2.889591 -1.640958 -0.945371 -2.738393 -2.439994 -4.672085 -2.750820 2.680667 12.716870 -26.844237 -10.662573 -1.239082 -0.054277 -0.740217 0.000000 0.000000 0.000000 6.891609 20.728131 -0.295830 -74.320013 27.374044 -2.745548 -3.394566 -41.020397 0.003165 -3.021327 -1.116479 0.028832 -0.112965 -0.005633 -0.000000 0.000000 0.000000 0.000000 0.000000 0.000000 0.000000 16.064188 -23.128179 -0.993895 58.316058 -5.446610 15.227939 2.187604 48.044170 0.010677 0.079108 5.183666 -0.000102 0.099225 -0.088937 -0.000000 0.000000 0.000000 0.000000 0.000000 0.000000 0.000000 
1.976290 16.924110 -1.523130 25.978355 -88.713724 -31.569914 -10.266662 1.961711 1.457619 -3.367731 4.547210 -32.352307 1.273757 3.372114 66.150659 3.454953 23.445385 2.806186 4.060300 0.000000 -32.784500 10.976158 -1.581005 -2.263718 7.231423 -21.212675 -2.254609 1.321733 -0.783016 23.098579 -2.260114 -10.031866 -13.003040 0.847300 0.000000 -62.117401 -2.877550 -2.829034 -1.423668 -0.956117 -2.674769 -2.394000 -4.730367 -2.681192 2.712268 12.886241 -26.711645 -10.693577 -1.261829 -0.055657 -0.751109 0.000000 0.000000 0.000000 6.942898 20.924542 -0.272047 -74.904996 27.692804 -2.733517 -3.446496 -40.454912 0.003072 -3.256015 -1.247322 0.034510 -0.112054 -0.010287 -0.000000 0.000000 0.000000 0.000000 0.000000 0.000000 0.000000 16.301282 -22.986943 -1.008802 58.450736 -4.801129 14.985660 2.177570 47.980761 0.010505 -0.367438 5.228096 -0.021080 0.103776 -0.091545 -0.000000 0.000000 0.000000 0.000000 0.000000 0.000000 0.000000 
